<svg width="46" height="45" viewBox="0 0 46 45" fill="none" xmlns="http://www.w3.org/2000/svg">
<path d="M17.1784 6.25633C19.2459 1.3781 26.1598 1.3781 28.2273 6.25633L29.5203 9.30516C30.3887 11.3541 32.3195 12.7546 34.5369 12.9429L37.8172 13.2212C43.1057 13.6699 45.2506 20.2596 41.2391 23.7349L38.7351 25.9038C37.0519 27.362 36.3153 29.6325 36.8211 31.8013L37.5701 35.0142C38.7758 40.1827 33.1706 44.2565 28.6267 41.5142L25.8035 39.8101C23.8967 38.6593 21.509 38.6592 19.6023 39.8101L16.78 41.5142C12.2361 44.2567 6.63001 40.1827 7.83564 35.0142L8.58565 31.8013C9.09143 29.6325 8.35384 27.362 6.6706 25.9038L4.16767 23.7349C0.156182 20.2596 2.30016 13.67 7.58857 13.2212L10.8689 12.9429C13.0863 12.7547 15.018 11.3542 15.8864 9.30516L17.1784 6.25633Z" fill="black"/>
<path d="M15.1575 5.56633C18.1933 -0.904916 27.5572 -0.800408 30.3885 5.87992L31.6573 8.8749C32.1544 10.048 33.2607 10.8499 34.5314 10.9579L37.7527 11.2312C45.11 11.8554 48.0934 21.0231 42.5132 25.858L40.0543 27.9879C39.09 28.8235 38.6677 30.1246 38.9572 31.3665L39.6937 34.5207L39.7657 34.8573C41.1277 41.8865 33.4741 47.3196 27.2516 43.5641V43.5631L24.4801 41.8916H24.4791C23.3868 41.2323 22.0192 41.2323 20.9269 41.8916H20.926L18.1535 43.5631C11.832 47.3782 4.03492 41.711 5.71229 34.5207L6.4488 31.3665L6.49484 31.1335C6.68363 29.9641 6.25588 28.7713 5.3517 27.9879L2.89281 25.858C-2.68756 21.0231 0.296099 11.8554 7.65332 11.2312L10.8746 10.9579C12.1447 10.8499 13.2504 10.0484 13.7478 8.8749L15.0175 5.87992L15.1575 5.56633ZM25.8677 7.79602C24.7204 5.08893 20.9675 5.00412 19.6572 7.54188L19.5383 7.79602L18.2686 10.791C17.0604 13.6414 14.3737 15.589 11.2889 15.8507L8.06761 16.124C5.03857 16.3814 3.8101 20.1558 6.1074 22.1466L8.56629 24.2766C10.8346 26.2417 11.8693 29.2681 11.2918 32.1989L11.2304 32.4828L10.4939 35.637C9.80356 38.5976 13.0142 40.9307 15.6169 39.3598H15.6179L18.3894 37.6873C21.0421 36.0862 24.3639 36.0862 27.0166 37.6873H27.0157L29.7882 39.3598H29.7891C32.3107 40.8816 35.4029 38.7393 34.9658 35.9122L34.9121 35.637L34.1756 32.4828C33.4716 29.465 34.4982 26.3051 36.8397 24.2766L39.2986 22.1466C41.5959 20.1558 40.3674 16.3814 37.3384 16.124L34.1171 15.8507C31.0328 15.589 28.3449 13.6421 27.1365 10.791L25.8677 7.79602Z" fill="url(#paint0_linear_1176_52689)"/>
<path d="M18.3049 29.3746V27.1018L22.6458 23.5109C22.9337 23.2723 23.1799 23.0488 23.3845 22.8405C23.5928 22.6283 23.7519 22.4105 23.8617 22.1871C23.9754 21.9636 24.0322 21.7155 24.0322 21.4427C24.0322 21.1435 23.9678 20.8878 23.839 20.6757C23.714 20.4636 23.5398 20.3007 23.3163 20.1871C23.0928 20.0696 22.8352 20.0109 22.5435 20.0109C22.2519 20.0109 21.9943 20.0696 21.7708 20.1871C21.5511 20.3045 21.3807 20.4768 21.2595 20.7041C21.1382 20.9314 21.0776 21.2079 21.0776 21.5336H18.0776C18.0776 20.7155 18.2613 20.0109 18.6288 19.42C18.9962 18.8291 19.5151 18.3746 20.1856 18.0564C20.856 17.7382 21.642 17.5791 22.5435 17.5791C23.4754 17.5791 24.2822 17.7287 24.964 18.028C25.6496 18.3234 26.178 18.7401 26.5492 19.278C26.9242 19.8158 27.1117 20.4465 27.1117 21.17C27.1117 21.617 27.0189 22.0621 26.8333 22.5052C26.6477 22.9446 26.3144 23.4314 25.8333 23.9655C25.3523 24.4996 24.6685 25.1359 23.7822 25.8746L22.6913 26.7836V26.8518H27.2367V29.3746H18.3049Z" fill="white"/>
<defs>
<linearGradient id="paint0_linear_1176_52689" x1="-31.8893" y1="1.63988" x2="-1.59183" y2="57.8784" gradientUnits="userSpaceOnUse">
<stop stop-color="#5E5E5E"/>
<stop offset="0.394231" stop-color="#626262"/>
<stop offset="0.666667" stop-color="white"/>
<stop offset="0.870192" stop-color="#6D6D6D"/>
</linearGradient>
</defs>
</svg>
