<svg width="46" height="45" viewBox="0 0 46 45" fill="none" xmlns="http://www.w3.org/2000/svg">
<path d="M17.1784 6.25634C19.2459 1.3781 26.1597 1.3781 28.2272 6.25634L29.5191 9.30615C30.3875 11.3552 32.3192 12.7547 34.5367 12.9429L37.8169 13.2212C43.1053 13.6699 45.2499 20.2595 41.2388 23.7349L38.7349 25.9038C37.0516 27.3621 36.3139 29.6333 36.8199 31.8023L37.5699 35.0142C38.7756 40.1828 33.1704 44.2566 28.6266 41.5142L25.8033 39.8111C23.8966 38.6602 21.509 38.6602 19.6022 39.8111L16.779 41.5142C12.2351 44.2566 6.62995 40.1828 7.83567 35.0142L8.58567 31.8023C9.09163 29.6333 8.35396 27.3621 6.67064 25.9038L4.16675 23.7349C0.155593 20.2596 2.30023 13.6699 7.5886 13.2212L10.8689 12.9429C13.0862 12.7547 15.017 11.355 15.8854 9.30615L17.1784 6.25634Z" fill="black"/>
<path d="M15.1575 5.27629C18.1933 -1.19496 27.5572 -1.09045 30.3885 5.58989L31.6573 8.58486C32.1544 9.75796 33.2607 10.5599 34.5314 10.6678L37.7527 10.9411C45.11 11.5653 48.0934 20.7331 42.5132 25.5679L40.0543 27.6979C39.09 28.5334 38.6677 29.8346 38.9572 31.0765L39.6937 34.2306L39.7657 34.5672C41.1277 41.5965 33.4741 47.0296 27.2516 43.2741V43.2731L24.4801 41.6016H24.4791C23.3868 40.9423 22.0192 40.9423 20.9269 41.6016H20.926L18.1535 43.2731C11.832 47.0881 4.03492 41.421 5.71229 34.2306L6.4488 31.0765L6.49484 30.8434C6.68363 29.674 6.25588 28.4813 5.3517 27.6979L2.89281 25.5679C-2.68756 20.733 0.296099 11.5653 7.65332 10.9411L10.8746 10.6678C12.1447 10.5599 13.2504 9.75839 13.7478 8.58486L15.0175 5.58989L15.1575 5.27629ZM25.8677 7.50598C24.7204 4.7989 20.9675 4.71408 19.6572 7.25184L19.5383 7.50598L18.2686 10.501C17.0604 13.3514 14.3737 15.2989 11.2889 15.5607L8.06761 15.834C5.03857 16.0913 3.8101 19.8658 6.1074 21.8566L8.56629 23.9865C10.8346 25.9516 11.8693 28.9781 11.2918 31.9089L11.2304 32.1927L10.4939 35.3469C9.80356 38.3076 13.0142 40.6407 15.6169 39.0698H15.6179L18.3894 37.3973C21.0421 35.7962 24.3639 35.7962 27.0166 37.3973H27.0157L29.7882 39.0698H29.7891C32.3107 40.5916 35.4029 38.4493 34.9658 35.6222L34.9121 35.3469L34.1756 32.1927C33.4716 29.1749 34.4982 26.0151 36.8397 23.9865L39.2986 21.8566C41.5959 19.8657 40.3674 16.0913 37.3384 15.834L34.1171 15.5607C31.0328 15.299 28.3449 13.3521 27.1365 10.501L25.8677 7.50598Z" fill="url(#paint0_linear_1176_52694)"/>
<path d="M22.6233 29.5336C21.7066 29.5336 20.8922 29.3765 20.1801 29.0621C19.4718 28.7439 18.9149 28.3064 18.5096 27.7496C18.1043 27.1927 17.8998 26.5526 17.896 25.8291H21.0778C21.0816 26.0526 21.1498 26.2533 21.2824 26.4314C21.4187 26.6056 21.6043 26.742 21.8392 26.8405C22.074 26.939 22.343 26.9882 22.646 26.9882C22.9377 26.9882 23.1952 26.9371 23.4187 26.8348C23.6422 26.7287 23.8165 26.5829 23.9415 26.3973C24.0665 26.2117 24.1271 25.9996 24.1233 25.7609C24.1271 25.5261 24.0551 25.3177 23.9074 25.1359C23.7634 24.9541 23.5608 24.8121 23.2994 24.7098C23.038 24.6075 22.7369 24.5564 22.396 24.5564H21.2142V22.3746H22.396C22.7104 22.3746 22.9869 22.3234 23.2255 22.2211C23.468 22.1189 23.6555 21.9768 23.788 21.795C23.9244 21.6132 23.9907 21.4049 23.9869 21.17C23.9907 20.9427 23.9358 20.742 23.8221 20.5677C23.7085 20.3935 23.5494 20.2571 23.3449 20.1586C23.1441 20.0602 22.9111 20.0109 22.646 20.0109C22.3581 20.0109 22.1005 20.0621 21.8733 20.1643C21.6498 20.2666 21.4736 20.4086 21.3449 20.5905C21.2161 20.7723 21.1498 20.9806 21.146 21.2155H18.1233C18.1271 20.5033 18.3221 19.8746 18.7085 19.3291C19.0986 18.7836 19.6327 18.3556 20.3108 18.045C20.9888 17.7344 21.7672 17.5791 22.646 17.5791C23.5058 17.5791 24.2653 17.7249 24.9244 18.0166C25.5873 18.3083 26.1043 18.7098 26.4755 19.2211C26.8505 19.7287 27.0361 20.3102 27.0324 20.9655C27.0399 21.617 26.8165 22.1511 26.3619 22.5677C25.9111 22.9844 25.3392 23.2306 24.646 23.3064V23.3973C25.5854 23.4996 26.2918 23.7874 26.7653 24.2609C27.2388 24.7306 27.4718 25.3215 27.4642 26.0336C27.468 26.7155 27.2634 27.3196 26.8505 27.8461C26.4415 28.3727 25.8714 28.7855 25.1403 29.0848C24.413 29.384 23.574 29.5336 22.6233 29.5336Z" fill="white"/>
<defs>
<linearGradient id="paint0_linear_1176_52694" x1="-31.8893" y1="1.34984" x2="-1.59183" y2="57.5884" gradientUnits="userSpaceOnUse">
<stop stop-color="#FC801A"/>
<stop offset="0.333333" stop-color="#AF4300"/>
<stop offset="0.666667" stop-color="#FDCAA5"/>
<stop offset="1" stop-color="#AF4300"/>
</linearGradient>
</defs>
</svg>
