<svg width="46" height="45" viewBox="0 0 46 45" fill="none" xmlns="http://www.w3.org/2000/svg">
<path d="M17.1783 6.2563C19.2458 1.37809 26.1596 1.37813 28.2271 6.2563L29.5201 9.3061C30.3885 11.355 32.3192 12.7556 34.5366 12.9438L37.8169 13.2221C43.1053 13.6708 45.2499 20.2595 41.2388 23.7348L38.7349 25.9037C37.0515 27.3621 36.3148 29.6332 36.8208 31.8022L37.5698 35.0151C38.7751 40.1835 33.1702 44.2565 28.6265 41.5141L25.8033 39.811C23.8965 38.6601 21.5089 38.6601 19.6021 39.811L16.7799 41.5141C12.2362 44.2566 6.63033 40.1835 7.83559 35.0151L8.58558 31.8022C9.09154 29.6333 8.35387 27.362 6.67055 25.9037L4.16666 23.7348C0.155662 20.2595 2.30021 13.6708 7.58852 13.2221L10.8688 12.9438C13.0862 12.7557 15.0179 11.3551 15.8863 9.3061L17.1783 6.2563Z" fill="black"/>
<path d="M15.1575 4.85637C18.1933 -1.61488 27.5572 -1.51037 30.3885 5.16996L31.6573 8.16494C32.1544 9.33804 33.2607 10.1399 34.5314 10.2479L37.7527 10.5212C45.11 11.1454 48.0934 20.3131 42.5132 25.148L40.0543 27.278C39.09 28.1135 38.6677 29.4147 38.9572 30.6565L39.6937 33.8107L39.7657 34.1473C41.1277 41.1766 33.4741 46.6096 27.2516 42.8541V42.8532L24.4801 41.1816H24.4791C23.3868 40.5224 22.0192 40.5224 20.9269 41.1816H20.926L18.1535 42.8532C11.832 46.6682 4.03492 41.0011 5.71229 33.8107L6.4488 30.6565L6.49484 30.4235C6.68363 29.2541 6.25588 28.0614 5.3517 27.278L2.89281 25.148C-2.68756 20.3131 0.296099 11.1454 7.65332 10.5212L10.8746 10.2479C12.1447 10.14 13.2504 9.33846 13.7478 8.16494L15.0175 5.16996L15.1575 4.85637ZM25.8677 7.08606C24.7204 4.37897 20.9675 4.29416 19.6572 6.83192L19.5383 7.08606L18.2686 10.081C17.0604 12.9315 14.3737 14.879 11.2889 15.1408L8.06761 15.4141C5.03857 15.6714 3.8101 19.4459 6.1074 21.4366L8.56629 23.5666C10.8346 25.5317 11.8693 28.5582 11.2918 31.489L11.2304 31.7728L10.4939 34.927C9.80356 37.8877 13.0142 40.2207 15.6169 38.6499H15.6179L18.3894 36.9774C21.0421 35.3763 24.3639 35.3763 27.0166 36.9774H27.0157L29.7882 38.6499H29.7891C32.3107 40.1717 35.4029 38.0294 34.9658 35.2022L34.9121 34.927L34.1756 31.7728C33.4716 28.755 34.4982 25.5951 36.8397 23.5666L39.2986 21.4366C41.5959 19.4458 40.3674 15.6714 37.3384 15.4141L34.1171 15.1408C31.0328 14.8791 28.3449 12.9322 27.1365 10.081L25.8677 7.08606Z" fill="url(#paint0_linear_1176_52684)"/>
<path d="M25.1341 17.7383V29.3746H21.975V20.6474H21.9068L19.3613 22.1701V19.4883L22.225 17.7383H25.1341Z" fill="white"/>
<defs>
<linearGradient id="paint0_linear_1176_52684" x1="-31.8893" y1="0.929918" x2="-1.59183" y2="57.1685" gradientUnits="userSpaceOnUse">
<stop stop-color="#FFE395"/>
<stop offset="0.333333" stop-color="#824E00"/>
<stop offset="0.666667" stop-color="#FFEBB7"/>
<stop offset="1" stop-color="#814E00"/>
</linearGradient>
</defs>
</svg>
